<?xml version="1.0" encoding="UTF-8"?>
<!DOCTYPE svg PUBLIC "-//W3C//DTD SVG 1.1//EN" "http://www.w3.org/Graphics/SVG/1.1/DTD/svg11.dtd">
<svg xmlns="http://www.w3.org/2000/svg" version="1.1" width="390px" height="390px" style="shape-rendering:geometricPrecision; text-rendering:geometricPrecision; image-rendering:optimizeQuality; fill-rule:evenodd; clip-rule:evenodd" xmlns:xlink="http://www.w3.org/1999/xlink">
<g><path style="opacity:0.994" fill="#ef576f" d="M 185.5,21.5 C 184.957,21.56 184.624,21.8933 184.5,22.5C 187.481,30.3944 186.981,38.0611 183,45.5C 177.329,50.7341 171.829,56.0675 166.5,61.5C 163.833,63.5 161.167,65.5 158.5,67.5C 150.214,56.7081 141.714,46.0415 133,35.5C 131.549,33.5359 129.716,32.2026 127.5,31.5C 135.654,25.5297 143.987,19.6964 152.5,14C 165.453,7.27581 176.453,9.77581 185.5,21.5 Z"/></g>
<g><path style="opacity:0.993" fill="#ee4f73" d="M 127.5,31.5 C 129.716,32.2026 131.549,33.5359 133,35.5C 141.714,46.0415 150.214,56.7081 158.5,67.5C 150.826,75.1736 142.826,82.5069 134.5,89.5C 124.594,76.2498 114.261,63.2498 103.5,50.5C 102.675,49.6143 101.675,49.281 100.5,49.5C 109.32,43.2549 118.32,37.2549 127.5,31.5 Z"/></g>
<g><path style="opacity:0.988" fill="#f06263" d="M 185.5,21.5 C 199.5,34.8333 213.167,48.5 226.5,62.5C 222.578,64.9155 219.078,67.9155 216,71.5C 210.954,78.2791 205.454,84.6124 199.5,90.5C 188.178,81.1767 177.178,71.51 166.5,61.5C 171.829,56.0675 177.329,50.7341 183,45.5C 186.981,38.0611 187.481,30.3944 184.5,22.5C 184.624,21.8933 184.957,21.56 185.5,21.5 Z"/></g>
<g><path style="opacity:0.996" fill="#ee4877" d="M 100.5,49.5 C 101.675,49.281 102.675,49.6143 103.5,50.5C 114.261,63.2498 124.594,76.2498 134.5,89.5C 133.027,91.3947 131.36,93.0613 129.5,94.5C 128.833,94.5 128.5,94.8333 128.5,95.5C 117.5,95.5 106.5,95.5 95.5,95.5C 95.5,94.1667 95.5,92.8333 95.5,91.5C 94.5,91.5 93.5,91.5 92.5,91.5C 92.5,92.8333 92.5,94.1667 92.5,95.5C 91.5,95.5 90.5,95.5 89.5,95.5C 89.5,93.8333 89.5,92.1667 89.5,90.5C 91.1992,90.6602 92.8659,90.4935 94.5,90C 89,83.1667 83.5,76.3333 78,69.5C 76.8904,67.9632 75.3904,67.2965 73.5,67.5C 82.2911,61.2651 91.2911,55.2651 100.5,49.5 Z"/></g>
<g><path style="opacity:0.989" fill="#ee7164" d="M 226.5,62.5 C 237.913,72.4098 248.913,82.9098 259.5,94C 271.674,94.1693 283.674,94.6693 295.5,95.5C 239.833,95.5 184.167,95.5 128.5,95.5C 128.5,94.8333 128.833,94.5 129.5,94.5C 154.169,94.6666 178.836,94.5 203.5,94C 202.269,92.5952 200.936,91.4286 199.5,90.5C 205.454,84.6124 210.954,78.2791 216,71.5C 219.078,67.9155 222.578,64.9155 226.5,62.5 Z"/></g>
<g><path style="opacity:0.996" fill="#ed427b" d="M 73.5,67.5 C 75.3904,67.2965 76.8904,67.9632 78,69.5C 83.5,76.3333 89,83.1667 94.5,90C 92.8659,90.4935 91.1992,90.6602 89.5,90.5C 89.5,92.1667 89.5,93.8333 89.5,95.5C 90.5,95.5 91.5,95.5 92.5,95.5C 92.5,94.1667 92.5,92.8333 92.5,91.5C 93.5,91.5 94.5,91.5 95.5,91.5C 95.5,92.8333 95.5,94.1667 95.5,95.5C 95.5,105.167 95.5,114.833 95.5,124.5C 92.5256,127.138 89.5256,129.805 86.5,132.5C 85.5041,132.586 84.6708,132.252 84,131.5C 72.6667,117.5 61.3333,103.5 50,89.5C 48.871,87.8588 47.371,86.8588 45.5,86.5C 54.4501,79.6847 63.7835,73.3514 73.5,67.5 Z"/></g>
<g><path style="opacity:0.993" fill="#ed407e" d="M 45.5,86.5 C 47.371,86.8588 48.871,87.8588 50,89.5C 61.3333,103.5 72.6667,117.5 84,131.5C 84.6708,132.252 85.5041,132.586 86.5,132.5C 81.9824,137.179 76.9824,141.346 71.5,145C 65.6204,146.818 59.6204,147.985 53.5,148.5C 32.5664,142.629 23.7331,128.962 27,107.5C 29.9412,97.5916 36.1079,90.5916 45.5,86.5 Z"/></g>
<g><path style="opacity:0.999" fill="#000000" d="M 95.5,95.5 C 106.5,95.5 117.5,95.5 128.5,95.5C 184.167,95.5 239.833,95.5 295.5,95.5C 295.5,106.833 295.5,118.167 295.5,129.5C 295.5,144.167 295.5,158.833 295.5,173.5C 295.5,188.5 295.5,203.5 295.5,218.5C 295.5,232.167 295.5,245.833 295.5,259.5C 295.5,271.5 295.5,283.5 295.5,295.5C 278.167,295.5 260.833,295.5 243.5,295.5C 228.833,295.5 214.167,295.5 199.5,295.5C 188.167,295.5 176.833,295.5 165.5,295.5C 161.833,295.5 158.167,295.5 154.5,295.5C 134.833,295.5 115.167,295.5 95.5,295.5C 95.5,238.5 95.5,181.5 95.5,124.5C 95.5,114.833 95.5,105.167 95.5,95.5 Z"/></g>
<g><path style="opacity:1" fill="#1e9bee" d="M 228.5,274.5 C 230.103,273.404 231.603,272.07 233,270.5C 233.185,257.425 233.685,244.425 234.5,231.5C 234.648,194.825 234.148,158.158 233,121.5C 231.544,119.535 229.71,118.201 227.5,117.5C 230.068,116.357 232.735,116.524 235.5,118C 246.378,123.606 257.378,128.939 268.5,134C 269.667,135.167 270.833,136.333 272,137.5C 273.155,156.913 273.655,176.413 273.5,196C 273.655,215.587 273.155,235.087 272,254.5C 260.05,261.893 247.55,268.393 234.5,274C 232.527,274.495 230.527,274.662 228.5,274.5 Z"/></g>
<g><path style="opacity:1" fill="#0064a7" d="M 227.5,117.5 C 229.71,118.201 231.544,119.535 233,121.5C 234.148,158.158 234.648,194.825 234.5,231.5C 234.167,231.5 233.833,231.5 233.5,231.5C 233.667,207.831 233.5,184.164 233,160.5C 217.381,172.054 201.881,183.721 186.5,195.5C 177.795,189.155 169.129,182.821 160.5,176.5C 183.11,157.228 205.444,137.561 227.5,117.5 Z"/></g>
<g><path style="opacity:0.994" fill="#d65a8d" d="M 95.5,124.5 C 95.5,181.5 95.5,238.5 95.5,295.5C 94.8333,252.331 94.1667,208.998 93.5,165.5C 79.9024,160.198 66.5691,154.532 53.5,148.5C 59.6204,147.985 65.6204,146.818 71.5,145C 76.9824,141.346 81.9824,137.179 86.5,132.5C 89.5256,129.805 92.5256,127.138 95.5,124.5 Z"/></g>
<g><path style="opacity:0.983" fill="#f27549" d="M 295.5,129.5 C 306.833,140.167 317.833,151.167 328.5,162.5C 325.606,163.882 323.106,165.882 321,168.5C 316.622,173.373 312.455,178.373 308.5,183.5C 304.167,180.167 299.833,176.833 295.5,173.5C 295.5,158.833 295.5,144.167 295.5,129.5 Z"/></g>
<g><path style="opacity:1" fill="#0079ca" d="M 160.5,176.5 C 169.129,182.821 177.795,189.155 186.5,195.5C 201.948,207.731 217.615,219.731 233.5,231.5C 233.833,231.5 234.167,231.5 234.5,231.5C 233.685,244.425 233.185,257.425 233,270.5C 231.603,272.07 230.103,273.404 228.5,274.5C 226.405,273.588 224.405,272.421 222.5,271C 202.604,252.266 182.604,233.766 162.5,215.5C 155.192,209.196 147.859,202.862 140.5,196.5C 132.531,188.7 124.364,181.033 116,173.5C 114,170.833 114,168.167 116,165.5C 119.201,161.964 122.701,158.797 126.5,156C 128.833,155.333 131.167,155.333 133.5,156C 142.928,162.368 151.928,169.202 160.5,176.5 Z"/></g>
<g><path style="opacity:1" fill="#000101" d="M 233.5,231.5 C 217.615,219.731 201.948,207.731 186.5,195.5C 201.881,183.721 217.381,172.054 233,160.5C 233.5,184.164 233.667,207.831 233.5,231.5 Z"/></g>
<g><path style="opacity:0.989" fill="#f37a44" d="M 328.5,162.5 C 339.134,171.467 349.134,181.134 358.5,191.5C 352.904,198.27 347.071,204.936 341,211.5C 336.886,207.539 332.386,204.206 327.5,201.5C 321.167,195.5 314.833,189.5 308.5,183.5C 312.455,178.373 316.622,173.373 321,168.5C 323.106,165.882 325.606,163.882 328.5,162.5 Z"/></g>
<g><path style="opacity:1" fill="#0063a6" d="M 140.5,196.5 C 147.859,202.862 155.192,209.196 162.5,215.5C 161.448,215.351 160.448,215.517 159.5,216C 150.833,222.667 142.167,229.333 133.5,236C 131.167,236.667 128.833,236.667 126.5,236C 123.299,232.464 119.799,229.297 116,226.5C 114.699,224.635 114.365,222.635 115,220.5C 117.797,216.701 120.964,213.201 124.5,210C 129.706,205.289 135.039,200.789 140.5,196.5 Z"/></g>
<g><path style="opacity:0.987" fill="#f38141" d="M 358.5,191.5 C 367.82,199.829 367.487,207.995 357.5,216C 347.011,222.997 336.678,230.164 326.5,237.5C 322.637,228.78 317.97,220.446 312.5,212.5C 311.675,211.614 310.675,211.281 309.5,211.5C 315.17,207.663 321.17,204.33 327.5,201.5C 332.386,204.206 336.886,207.539 341,211.5C 347.071,204.936 352.904,198.27 358.5,191.5 Z"/></g>
<g><path style="opacity:0.992" fill="#f48d40" d="M 309.5,211.5 C 310.675,211.281 311.675,211.614 312.5,212.5C 317.97,220.446 322.637,228.78 326.5,237.5C 316.167,244.833 305.833,252.167 295.5,259.5C 295.5,245.833 295.5,232.167 295.5,218.5C 300.193,216.153 304.86,213.82 309.5,211.5 Z"/></g>
<g><path style="opacity:1" fill="#fafafa" d="M 112.5,257.5 C 137.5,257.5 162.5,257.5 187.5,257.5C 187.5,261.833 187.5,266.167 187.5,270.5C 162.5,270.5 137.5,270.5 112.5,270.5C 112.5,266.167 112.5,261.833 112.5,257.5 Z"/></g>
<g><path style="opacity:0.996" fill="#f9c93c" d="M 165.5,295.5 C 176.833,295.5 188.167,295.5 199.5,295.5C 203.833,302.833 208.167,310.167 212.5,317.5C 204.446,323.55 196.112,329.217 187.5,334.5C 187.509,332.692 187.009,331.025 186,329.5C 178.904,318.305 172.071,306.972 165.5,295.5 Z"/></g>
<g><path style="opacity:0.991" fill="#f8be3f" d="M 199.5,295.5 C 214.167,295.5 228.833,295.5 243.5,295.5C 233.38,303.067 223.047,310.4 212.5,317.5C 208.167,310.167 203.833,302.833 199.5,295.5 Z"/></g>
<g><path style="opacity:0.994" fill="#fad53c" d="M 154.5,295.5 C 158.167,295.5 161.833,295.5 165.5,295.5C 172.071,306.972 178.904,318.305 186,329.5C 187.009,331.025 187.509,332.692 187.5,334.5C 181.037,340.233 174.037,345.233 166.5,349.5C 158.251,333.995 149.251,318.995 139.5,304.5C 144.334,301.248 149.334,298.248 154.5,295.5 Z"/></g>
<g><path style="opacity:0.994" fill="#fbe23c" d="M 139.5,304.5 C 149.251,318.995 158.251,333.995 166.5,349.5C 158.889,355.646 150.889,361.312 142.5,366.5C 133.593,350.258 124.26,334.258 114.5,318.5C 122.341,313.077 130.674,308.41 139.5,304.5 Z"/></g>
<g><path style="opacity:0.991" fill="#fced3d" d="M 114.5,318.5 C 124.26,334.258 133.593,350.258 142.5,366.5C 130.82,378.422 117.486,380.589 102.5,373C 90.6876,364.23 86.8542,352.73 91,338.5C 95.506,327.987 103.339,321.321 114.5,318.5 Z"/></g>
</svg>
